<svg width="376" height="339" viewBox="0 0 376 339" fill="none" xmlns="http://www.w3.org/2000/svg">
<g clip-path="url(#clip0_2_2007)">
<g clip-path="url(#clip1_2_2007)">
<path opacity="0.07" d="M328.652 144.756C328.652 146.621 328.611 148.486 328.486 150.226C346.293 163.778 360 192.828 360 218.398C360 246.247 343.726 259.383 323.641 247.78C323.6 247.738 323.558 247.738 323.517 247.697L197.338 174.884C197.297 174.842 197.255 174.842 197.172 174.801C174.603 161.747 156.3 125.817 156.3 94.5284C156.3 65.2289 172.367 50.3516 192.949 59.3443C195.475 39.2452 208.933 30.5839 225.166 39.9912C232.952 44.5083 240.116 52.4236 245.706 61.9555C253.822 49.8957 267.654 46.829 283.307 55.8633C308.361 70.2853 328.652 110.11 328.652 144.756Z" fill="url(#paint0_linear_2_2007)"/>
<path opacity="0.4" d="M307.947 164.648C307.947 166.513 307.905 168.378 307.781 170.118C325.588 183.67 339.295 212.72 339.295 238.29C339.295 266.139 323.02 279.276 302.936 267.672C302.895 267.631 302.853 267.631 302.812 267.589L176.633 194.776C176.592 194.735 176.55 194.735 176.467 194.693C153.898 181.639 135.595 145.709 135.595 114.42C135.595 85.1214 151.662 70.2436 172.244 79.2368C174.769 59.1371 188.228 50.476 204.461 59.8835C212.247 64.4007 219.41 72.3156 225.001 81.8474C233.117 69.7879 246.949 66.7211 262.602 75.7556C287.656 90.1772 307.947 130.003 307.947 164.648Z" fill="url(#paint1_linear_2_2007)"/>
<path opacity="0.2" d="M108.181 200.122L88.9663 189.016V182.509L108.181 193.616C109.755 194.528 112.032 196.351 113.978 199.169C116.09 202.194 117.581 206.007 117.581 210.151C117.581 214.71 116.422 217.32 114.185 218.066C112.115 218.771 109.672 217.569 108.139 216.699L100.23 212.14L100.188 212.099C99.5256 211.684 98.4489 211.312 97.5795 211.56C96.8755 211.767 96.0885 212.472 96.0885 214.999C96.0885 217.528 96.8755 219.102 97.5383 220.014C98.3665 221.174 99.4432 222.003 100.105 222.335L100.188 222.376L124.331 236.342V242.849L100.313 228.965C98.6562 228.095 96.2957 226.272 94.2254 223.371C91.9891 220.221 90.4156 216.201 90.4568 211.726C90.4568 207.292 91.9891 205.012 94.2254 204.39C96.2957 203.811 98.6562 204.639 100.313 205.675L108.139 210.193C109.257 210.855 110.127 211.146 110.665 210.938C111.08 210.814 111.908 210.193 111.908 206.877C111.908 204.764 111.204 203.354 110.583 202.401C109.837 201.324 108.802 200.495 108.181 200.122Z" fill="white"/>
<path d="M93.1075 187.399C93.1075 192.745 89.96 195.274 86.109 193.077C82.2575 190.839 79.1105 184.706 79.1105 179.318C79.1105 173.972 82.2575 171.444 86.109 173.641C89.96 175.878 93.1075 182.053 93.1075 187.399Z" fill="url(#paint2_linear_2_2007)"/>
<path d="M134.104 245.004C134.104 250.35 130.957 252.877 127.106 250.681C123.254 248.443 120.107 242.31 120.107 236.922C120.107 231.576 123.254 229.048 127.106 231.245C130.957 233.483 134.104 239.658 134.104 245.004Z" fill="url(#paint3_linear_2_2007)"/>
<path opacity="0.07" d="M167.191 107.334L291.382 179.069V244.838L167.149 173.102L167.191 107.334Z" fill="url(#paint4_linear_2_2007)"/>
<path opacity="0.3" d="M150.585 115.622L274.776 187.358V253.126L150.585 181.39V115.622Z" fill="url(#paint5_linear_2_2007)"/>
<path d="M161.724 154.785C161.724 160.089 164.871 166.182 168.723 168.419C172.574 170.657 175.721 168.171 175.721 162.866C175.721 157.562 172.574 151.47 168.723 149.232C164.871 146.994 161.724 149.48 161.724 154.785Z" fill="url(#paint6_linear_2_2007)"/>
<path opacity="0.15" d="M179.242 165.021C179.242 167.466 180.691 170.326 182.514 171.362C184.294 172.398 185.744 171.238 185.744 168.792C185.744 166.347 184.294 163.488 182.472 162.452C180.691 161.416 179.242 162.576 179.242 165.021Z" fill="white"/>
<path opacity="0.15" d="M189.222 170.781C189.222 173.226 190.671 176.086 192.493 177.122C194.274 178.158 195.724 176.997 195.724 174.552C195.724 172.108 194.274 169.248 192.452 168.212C190.671 167.176 189.222 168.336 189.222 170.781Z" fill="white"/>
<path opacity="0.15" d="M243.428 181.97V219.392L238.542 216.575V179.152L243.428 181.97Z" fill="white"/>
<path opacity="0.15" d="M254.112 188.187V225.608L249.226 222.791V185.368L254.112 188.187Z" fill="white"/>
<path opacity="0.15" d="M264.837 194.403V231.825L259.951 229.007V191.585L264.837 194.403Z" fill="white"/>
<path opacity="0.07" d="M167.149 197.221L291.341 268.956V334.725L167.149 262.989V197.221Z" fill="url(#paint7_linear_2_2007)"/>
<path opacity="0.3" d="M150.585 205.924L274.776 277.66V343.428L150.585 271.692V205.924Z" fill="url(#paint8_linear_2_2007)"/>
<path d="M161.724 245.086C161.724 250.391 164.871 256.483 168.723 258.721C172.574 260.959 175.721 258.472 175.721 253.167C175.721 247.863 172.574 241.771 168.723 239.533C164.871 237.295 161.724 239.782 161.724 245.086Z" fill="url(#paint9_linear_2_2007)"/>
<path opacity="0.15" d="M179.242 255.364C179.242 257.809 180.691 260.668 182.514 261.704C184.294 262.74 185.744 261.58 185.744 259.135C185.744 256.69 184.294 253.831 182.472 252.795C180.691 251.759 179.242 252.877 179.242 255.364Z" fill="white"/>
<path opacity="0.15" d="M189.18 261.124C189.18 263.569 190.63 266.429 192.452 267.465C194.233 268.501 195.682 267.341 195.682 264.895C195.682 262.45 194.233 259.591 192.411 258.555C190.63 257.477 189.18 258.638 189.18 261.124Z" fill="white"/>
<path opacity="0.15" d="M243.428 273.557V310.979L238.542 308.16V270.739L243.428 273.557Z" fill="white"/>
<path opacity="0.15" d="M254.112 279.773V317.195L249.226 314.377V276.955L254.112 279.773Z" fill="white"/>
<path opacity="0.15" d="M264.837 285.989V323.411L259.951 320.593V283.172L264.837 285.989Z" fill="white"/>
<path opacity="0.3" d="M40.3083 18.1929L117.705 62.9085V206.421L40.3083 161.664V18.1929Z" fill="url(#paint10_linear_2_2007)"/>
<path d="M88.0963 70.1605C88.0963 77.3302 83.9552 80.7284 78.8616 77.7446C73.7679 74.7607 69.627 66.5551 69.627 59.3861C69.627 52.2166 73.7679 48.8183 78.8616 51.8021C83.9552 54.7859 88.0963 62.9915 88.0963 70.1605Z" fill="url(#paint11_linear_2_2007)"/>
<path d="M78.8616 83.505C70.6207 78.6982 63.8293 83.2148 62.6284 93.5754C62.4214 95.3573 63.7879 97.7612 65.4443 98.7143L92.3199 114.421C93.9764 115.374 95.3432 114.628 95.136 112.556C93.8934 100.745 87.0609 88.3124 78.8616 83.505Z" fill="url(#paint12_linear_2_2007)"/>
<path opacity="0.15" d="M55.8374 111.271L101.969 137.918V143.554L55.8374 116.907V111.271Z" fill="white"/>
<path opacity="0.15" d="M60.517 125.154L97.0827 146.248V151.884L60.517 130.79V125.154Z" fill="white"/>
<path d="M69.8341 148.859L16 117.736V133.774L69.8341 164.897V148.859Z" fill="url(#paint13_linear_2_2007)"/>
<path opacity="0.2" d="M134.394 0L145.906 22.6272C147.48 25.7353 147.231 28.8435 145.326 29.5894C143.421 30.3354 140.606 28.3876 139.032 25.2795L138.908 24.9893V50.1031C138.908 52.9626 136.92 54.1229 134.436 52.7139C131.951 51.2634 129.963 47.8237 129.963 44.9643V19.8506L129.839 19.9749C128.265 21.2596 125.408 19.9335 123.544 16.9911C121.639 14.0488 121.391 10.6505 122.965 9.36584L134.394 0Z" fill="url(#paint14_linear_2_2007)"/>
<path opacity="0.2" d="M134.394 334.103L122.882 311.476C121.308 308.368 121.556 305.26 123.461 304.514C125.366 303.768 128.182 305.715 129.756 308.824L129.88 309.113V284C129.88 281.141 131.868 279.98 134.353 281.389C136.837 282.84 138.825 286.28 138.825 289.139V314.252L138.949 314.128C140.523 312.844 143.38 314.17 145.244 317.112C147.149 320.054 147.397 323.453 145.824 324.737L134.394 334.103Z" fill="url(#paint15_linear_2_2007)"/>
</g>
</g>
<defs>
<linearGradient id="paint0_linear_2_2007" x1="352.592" y1="65.6164" x2="224.365" y2="187.152" gradientUnits="userSpaceOnUse">
<stop stop-color="white"/>
<stop offset="1" stop-color="white" stop-opacity="0"/>
</linearGradient>
<linearGradient id="paint1_linear_2_2007" x1="331.882" y1="85.5089" x2="203.656" y2="207.045" gradientUnits="userSpaceOnUse">
<stop stop-color="white"/>
<stop offset="1" stop-color="white" stop-opacity="0"/>
</linearGradient>
<linearGradient id="paint2_linear_2_2007" x1="93.1075" y1="183.485" x2="79.1105" y2="183.485" gradientUnits="userSpaceOnUse">
<stop stop-color="#818CF8"/>
<stop offset="1" stop-color="#818CF8"/>
</linearGradient>
<linearGradient id="paint3_linear_2_2007" x1="134.104" y1="241.09" x2="120.107" y2="241.09" gradientUnits="userSpaceOnUse">
<stop stop-color="#818CF8"/>
<stop offset="1" stop-color="#818CF8"/>
</linearGradient>
<linearGradient id="paint4_linear_2_2007" x1="226.727" y1="112.593" x2="231.361" y2="228.928" gradientUnits="userSpaceOnUse">
<stop stop-color="white"/>
<stop offset="1" stop-color="white" stop-opacity="0"/>
</linearGradient>
<linearGradient id="paint5_linear_2_2007" x1="210.162" y1="120.881" x2="214.796" y2="237.216" gradientUnits="userSpaceOnUse">
<stop stop-color="white"/>
<stop offset="1" stop-color="white" stop-opacity="0"/>
</linearGradient>
<linearGradient id="paint6_linear_2_2007" x1="175.721" y1="158.951" x2="161.724" y2="158.951" gradientUnits="userSpaceOnUse">
<stop stop-color="#818CF8"/>
<stop offset="1" stop-color="#818CF8"/>
</linearGradient>
<linearGradient id="paint7_linear_2_2007" x1="226.718" y1="202.494" x2="231.352" y2="318.828" gradientUnits="userSpaceOnUse">
<stop stop-color="white"/>
<stop offset="1" stop-color="white" stop-opacity="0"/>
</linearGradient>
<linearGradient id="paint8_linear_2_2007" x1="210.153" y1="211.197" x2="214.787" y2="327.531" gradientUnits="userSpaceOnUse">
<stop stop-color="white"/>
<stop offset="1" stop-color="white" stop-opacity="0"/>
</linearGradient>
<linearGradient id="paint9_linear_2_2007" x1="175.721" y1="249.252" x2="161.724" y2="249.252" gradientUnits="userSpaceOnUse">
<stop stop-color="#818CF8"/>
<stop offset="1" stop-color="#818CF8"/>
</linearGradient>
<linearGradient id="paint10_linear_2_2007" x1="126" y1="30.8058" x2="57.2182" y2="149.882" gradientUnits="userSpaceOnUse">
<stop stop-color="white"/>
<stop offset="1" stop-color="white" stop-opacity="0"/>
</linearGradient>
<linearGradient id="paint11_linear_2_2007" x1="88.0963" y1="64.9427" x2="69.627" y2="64.9427" gradientUnits="userSpaceOnUse">
<stop stop-color="#818CF8"/>
<stop offset="1" stop-color="#818CF8"/>
</linearGradient>
<linearGradient id="paint12_linear_2_2007" x1="95.1566" y1="98.4063" x2="62.6075" y2="98.4063" gradientUnits="userSpaceOnUse">
<stop stop-color="#818CF8"/>
<stop offset="1" stop-color="#818CF8"/>
</linearGradient>
<linearGradient id="paint13_linear_2_2007" x1="69.8341" y1="141.6" x2="16" y2="141.6" gradientUnits="userSpaceOnUse">
<stop stop-color="#818CF8"/>
<stop offset="1" stop-color="#818CF8"/>
</linearGradient>
<linearGradient id="paint14_linear_2_2007" x1="142.586" y1="22.8244" x2="121.575" y2="34.5284" gradientUnits="userSpaceOnUse">
<stop stop-color="white"/>
<stop offset="1" stop-color="white" stop-opacity="0"/>
</linearGradient>
<linearGradient id="paint15_linear_2_2007" x1="126.18" y1="311.294" x2="147.191" y2="299.59" gradientUnits="userSpaceOnUse">
<stop stop-color="white"/>
<stop offset="1" stop-color="white" stop-opacity="0"/>
</linearGradient>
<clipPath id="clip0_2_2007">
<rect width="376" height="339" fill="white"/>
</clipPath>
<clipPath id="clip1_2_2007">
<rect width="344" height="343.428" fill="white" transform="translate(16)"/>
</clipPath>
</defs>
</svg>
